<svg width="20" height="20" viewBox="0 0 20 20" fill="none" xmlns="http://www.w3.org/2000/svg">
<g clip-path="url(#clip0)">
<path d="M10.0034 4.86499C7.16754 4.86499 4.8717 7.16332 4.8717 9.99666C4.8717 12.8325 7.17004 15.1283 10.0034 15.1283C12.8392 15.1283 15.135 12.83 15.135 9.99666C15.135 7.16082 12.8367 4.86499 10.0034 4.86499ZM10.0034 13.3275C8.16254 13.3275 6.67254 11.8367 6.67254 9.99666C6.67254 8.15666 8.16337 6.66582 10.0034 6.66582C11.8434 6.66582 13.3342 8.15666 13.3342 9.99666C13.335 11.8367 11.8442 13.3275 10.0034 13.3275Z" fill="white" fill-opacity="0.9"/>
<path d="M14.1233 0.0636157C12.2833 -0.0222177 7.72578 -0.018051 5.88411 0.0636157C4.26578 0.139449 2.83828 0.530282 1.68745 1.68112C-0.235888 3.60445 0.00994525 6.19612 0.00994525 9.99695C0.00994525 13.8869 -0.206721 16.4186 1.68745 18.3128C3.61828 20.2428 6.24745 19.9903 10.0033 19.9903C13.8566 19.9903 15.1866 19.9928 16.5491 19.4653C18.4016 18.7461 19.7999 17.0903 19.9366 14.1161C20.0233 12.2753 20.0183 7.71862 19.9366 5.87695C19.7716 2.36612 17.8874 0.236949 14.1233 0.0636157ZM17.0358 17.0403C15.7749 18.3011 14.0258 18.1886 9.97911 18.1886C5.81245 18.1886 4.14161 18.2503 2.92245 17.0278C1.51828 15.6303 1.77245 13.3861 1.77245 9.98361C1.77245 5.37945 1.29995 2.06362 5.92078 1.82695C6.98245 1.78945 7.29495 1.77695 9.96745 1.77695L10.0049 1.80195C14.4458 1.80195 17.9299 1.33695 18.1391 5.95695C18.1866 7.01112 18.1974 7.32778 18.1974 9.99612C18.1966 14.1144 18.2749 15.7953 17.0358 17.0403Z" fill="white" fill-opacity="0.9"/>
<path d="M15.3383 5.86165C16.0006 5.86165 16.5375 5.32477 16.5375 4.66248C16.5375 4.0002 16.0006 3.46332 15.3383 3.46332C14.676 3.46332 14.1392 4.0002 14.1392 4.66248C14.1392 5.32477 14.676 5.86165 15.3383 5.86165Z" fill="white" fill-opacity="0.9"/>
</g>
<defs>
<clipPath id="clip0">
<rect width="20" height="20" fill="white"/>
</clipPath>
</defs>
</svg>
